HIERARCHY
ROOT root
{
	OFFSET	0.000000	0.000000	0.000000
	CHANNELS 6 Xposition Yposition Zposition Zrotation Yrotation Xrotation
	JOINT lhipjoint
	{
		OFFSET	0.000000	0.000000	0.000000
		CHANNELS 3 Zrotation Yrotation Xrotation
		JOINT lfemur
		{
			OFFSET	1.656736	-1.802822	0.624766
			CHANNELS 3 Zrotation Yrotation Xrotation
			JOINT ltibia
			{
				OFFSET	2.597200	-7.135754	0.000000
				CHANNELS 3 Zrotation Yrotation Xrotation
				JOINT lfoot
				{
					OFFSET	2.492357	-6.847701	0.000000
					CHANNELS 3 Zrotation Yrotation Xrotation
					JOINT ltoes
					{
						OFFSET	0.197038	-0.541357	2.145811
						CHANNELS 3 Zrotation Yrotation Xrotation
						End Site
						{
							OFFSET	0.000000	-0.000000	1.112490
						}
					}
				}
			}
		}
	}
	JOINT rhipjoint
	{
		OFFSET	0.000000	0.000000	0.000000
		CHANNELS 3 Zrotation Yrotation Xrotation
		JOINT rfemur
		{
			OFFSET	-1.610701	-1.802823	0.624765
			CHANNELS 3 Zrotation Yrotation Xrotation
			JOINT rtibia
			{
				OFFSET	-2.595021	-7.129768	0.000000
				CHANNELS 3 Zrotation Yrotation Xrotation
				JOINT rfoot
				{
					OFFSET	-2.467804	-6.780241	0.000000
					CHANNELS 3 Zrotation Yrotation Xrotation
					JOINT rtoes
					{
						OFFSET	-0.230239	-0.632577	2.133676
						CHANNELS 3 Zrotation Yrotation Xrotation
						End Site
						{
							OFFSET	-0.000000	-0.000000	1.115690
						}
					}
				}
			}
		}
	}
	JOINT lowerback
	{
		OFFSET	0.000000	0.000000	0.000000
		CHANNELS 3 Zrotation Yrotation Xrotation
		JOINT upperback
		{
			OFFSET	0.019612	2.054496	-0.141116
			CHANNELS 3 Zrotation Yrotation Xrotation
			JOINT thorax
			{
				OFFSET	0.010210	2.064356	-0.059210
				CHANNELS 3 Zrotation Yrotation Xrotation
				JOINT lowerneck
				{
					OFFSET	0.001509	2.068054	0.008037
					CHANNELS 3 Zrotation Yrotation Xrotation
					JOINT upperneck
					{
						OFFSET	0.007130	1.567112	0.149683
						CHANNELS 3 Zrotation Yrotation Xrotation
						JOINT head
						{
							OFFSET	0.034286	1.560409	-0.100058
							CHANNELS 3 Zrotation Yrotation Xrotation
							End Site
							{
								OFFSET	0.013051	1.625595	-0.052648
							}
						}
					}
				}
				JOINT lclavicle
				{
					OFFSET	0.001509	2.068054	0.008037
					CHANNELS 3 Zrotation Yrotation Xrotation
					JOINT lhumerus
					{
						OFFSET	3.542050	0.904362	-0.173638
						CHANNELS 3 Zrotation Yrotation Xrotation
						JOINT lradius
						{
							OFFSET	4.865130	-0.000000	-0.000000
							CHANNELS 3 Zrotation Yrotation Xrotation
							JOINT lwrist
							{
								OFFSET	3.355540	-0.000000	0.000000
								CHANNELS 3 Zrotation Yrotation Xrotation
								JOINT lhand
								{
									OFFSET	1.677770	-0.000000	0.000000
									CHANNELS 3 Zrotation Yrotation Xrotation
									JOINT lfingers
									{
										OFFSET	0.661175	-0.000000	0.000000
										CHANNELS 3 Zrotation Yrotation Xrotation
										End Site
										{
											OFFSET	0.533057	-0.000000	0.000000
										}
									}
								}
								JOINT lthumb
								{
									OFFSET	1.677770	-0.000000	0.000000
									CHANNELS 3 Zrotation Yrotation Xrotation
									End Site
									{
										OFFSET	0.541196	-0.000000	0.541196
									}
								}
							}
						}
					}
				}
				JOINT rclavicle
				{
					OFFSET	0.001509	2.068054	0.008037
					CHANNELS 3 Zrotation Yrotation Xrotation
					JOINT rhumerus
					{
						OFFSET	-3.498016	0.759940	-0.326156
						CHANNELS 3 Zrotation Yrotation Xrotation
						JOINT rradius
						{
							OFFSET	-5.026490	-0.000000	0.000000
							CHANNELS 3 Zrotation Yrotation Xrotation
							JOINT rwrist
							{
								OFFSET	-3.364310	-0.000000	0.000000
								CHANNELS 3 Zrotation Yrotation Xrotation
								JOINT rhand
								{
									OFFSET	-1.682160	-0.000000	0.000000
									CHANNELS 3 Zrotation Yrotation Xrotation
									JOINT rfingers
									{
										OFFSET	-0.730406	-0.000000	0.000000
										CHANNELS 3 Zrotation Yrotation Xrotation
										End Site
										{
											OFFSET	-0.588872	-0.000000	0.000000
										}
									}
								}
								JOINT rthumb
								{
									OFFSET	-1.682160	-0.000000	0.000000
									CHANNELS 3 Zrotation Yrotation Xrotation
									End Site
									{
										OFFSET	-0.597863	-0.000000	0.597863
									}
								}
							}
						}
					}
				}
			}
		}
	}
}
MOTION
Frames:	7
Frame Time:	0.008333
	9.627450	17.797300	-1.039230	3.493820	-22.401402	-6.379090	0.000000	0.000000	0.000000	-21.229576	-1.859669	-6.757490	0.813106	5.754218	16.072931	-0.885186	16.608126	-9.158132	0.258745	-3.272631	-9.038710	0.000000	0.000000	0.000000	19.611855	-6.113893	4.101266	-0.797864	-5.701318	15.920213	-0.309327	-13.707053	-22.705709	-0.005886	-0.495418	1.361315	-0.043135	1.127980	5.600250	0.791281	1.493050	2.771390	0.749946	0.736113	-0.311801	0.322245	6.571120	-8.905019	-3.941500	8.875240	1.336990	-0.892614	4.306580	2.153880	0.322245	-0.000000	0.000000	-93.271034	0.067829	13.505592	18.885859	-29.276606	-4.974907	0.000000	0.000000	-26.265797	25.877378	16.878042	8.016675	-7.125019	0.000000	0.000000	-1.940597	48.605064	-0.172620	0.322245	-0.000000	0.000000	81.125854	3.891897	37.143272	-17.633730	27.685638	-4.377732	0.000000	-0.000002	-15.529694	-24.657728	14.995511	-6.773710	7.125019	0.000000	0.000000	1.966646	-13.564425	1.451404
	9.626560	17.806400	-1.040880	4.314109	-22.471397	-6.770190	0.000000	0.000000	0.000000	-22.063299	-1.544682	-6.220199	0.717013	5.411193	15.085173	-0.918945	16.859402	-8.961033	0.145794	-2.460647	-6.780546	0.000000	0.000000	0.000000	18.758986	-5.967727	3.772481	-0.876503	-5.968717	16.693684	-0.400712	-13.323844	-23.109863	-0.001853	-0.277943	0.763674	-0.822496	1.184620	5.630752	0.503344	1.527920	2.765790	0.888507	0.748779	-0.347203	0.410690	6.537820	-9.105770	-3.763650	8.823462	1.576590	-0.842888	4.280430	2.263790	0.410690	-0.000000	0.000000	-92.935989	-0.121759	13.597203	19.291229	-29.778942	-5.174693	-0.000000	0.000002	-26.034496	25.857138	15.699180	7.471130	-7.125019	0.000000	0.000000	-1.752210	47.317856	-0.100243	0.410690	-0.000000	0.000000	81.047806	4.217202	37.306618	-18.087515	28.269077	-4.590614	0.000000	0.000000	-15.478498	-24.664268	15.477799	-6.986347	7.125019	0.000000	0.000000	1.998491	-13.041137	1.496917
	9.629980	17.805700	-1.048080	4.302610	-22.606701	-6.882400	0.000000	0.000000	0.000000	-22.026209	-1.472870	-6.188206	0.728430	5.453186	15.205781	-0.912339	16.866766	-9.404253	0.086461	-1.896558	-5.219873	0.000000	0.000000	0.000000	18.801287	-5.826936	4.013021	-0.857520	-5.905393	16.510170	-0.398417	-13.346042	-23.114100	-0.001517	-0.251587	0.691255	-0.836751	1.221800	5.724831	0.520058	1.575620	2.818980	0.909465	0.771967	-0.346666	0.702006	6.481270	-9.410010	-4.062910	8.740260	1.809760	-0.976456	4.224180	2.428340	0.702006	0.000000	0.000000	-92.699516	-0.461173	14.213179	19.684256	-30.260054	-5.371325	0.000000	0.000000	-26.309900	25.815258	15.376512	7.309462	-7.125019	0.000000	0.000000	-1.738936	46.959835	-0.084128	0.702006	0.000000	0.000000	80.703354	4.680647	37.449715	-18.542355	28.846054	-4.808053	0.000000	0.000000	-15.599491	-24.795639	15.936797	-7.229190	7.125019	0.000000	0.000000	1.946370	-12.526325	1.478766
	9.633670	17.810200	-1.058840	3.649430	-23.009199	-6.722830	0.000000	0.000000	0.000000	-21.294287	-1.283000	-6.018279	0.701521	5.353644	14.920023	-0.923408	17.027035	-9.858958	0.027207	-1.064844	-2.927248	0.000000	0.000000	0.000000	19.531969	-5.493091	4.011095	-0.876225	-5.967800	16.691023	-0.391209	-13.408544	-23.119383	-0.001827	-0.276132	0.758697	-0.188989	1.289160	5.863269	0.676404	1.698580	2.828470	0.696457	0.837978	-0.402741	0.895745	6.488660	-9.538510	-4.235990	8.742870	1.950850	-1.057490	4.217490	2.519990	0.895745	-0.000000	0.000000	-92.336929	-0.801322	15.049154	20.071466	-30.728352	-5.567820	-0.000000	0.000002	-26.735596	25.769217	16.651154	7.875786	-7.125019	0.000000	0.000000	-2.003703	48.341476	-0.165223	0.895745	-0.000000	0.000000	80.334854	5.054667	37.705364	-19.149044	29.603455	-5.104266	0.000000	0.000000	-15.959697	-24.779593	15.914406	-7.214145	7.125019	0.000000	0.000000	1.955322	-12.552828	1.484498
	9.639560	17.811100	-1.066130	3.566250	-23.422701	-6.661750	0.000000	0.000000	0.000000	-21.130524	-1.224932	-6.110565	0.708126	5.378262	14.990648	-0.909156	17.049494	-10.606642	0.000834	-0.186322	-0.511926	0.000000	0.000000	0.000000	19.598719	-5.384887	3.921729	-0.868851	-5.943290	16.619968	-0.334221	-13.428955	-22.611795	-0.000003	0.008815	-0.024221	-0.029787	1.376840	5.815300	0.634957	1.823100	2.814300	0.558177	0.901835	-0.386109	1.374570	6.443740	-9.644510	-4.724380	8.661890	2.142460	-1.293820	4.160830	2.656720	1.374570	0.000000	0.000000	-91.858742	-1.145853	15.754465	20.646278	-31.413120	-5.864486	0.000000	0.000000	-27.048992	25.238264	18.173294	8.363696	-7.125019	0.000000	0.000000	-2.827906	49.905056	-0.342209	1.374570	0.000000	0.000000	80.089409	5.455922	38.156834	-19.810909	30.413862	-5.435297	0.000000	0.000000	-16.272093	-25.043386	15.527829	-7.129557	7.125019	0.000000	0.000000	1.748002	-12.936024	1.312952
	9.649600	17.803101	-1.068650	3.877050	-23.569599	-6.851550	0.000000	0.000000	0.000000	-21.448217	-1.215280	-6.027125	0.709911	5.384902	15.009701	-0.893755	17.032034	-11.101857	0.000210	0.093344	0.256458	0.000000	0.000000	0.000000	19.203762	-5.455723	3.959227	-0.867602	-5.939127	16.607904	-0.310588	-13.313499	-22.249802	-0.000064	0.051211	-0.140705	-0.230950	1.376740	5.752521	0.532722	1.811300	2.873630	0.569239	0.894470	-0.293051	1.731660	6.377639	-9.664829	-5.290309	8.564411	2.167900	-1.543440	4.095820	2.718950	1.731660	0.000000	0.000000	-91.538536	-1.504238	16.280951	21.455912	-32.356655	-6.292167	0.000000	0.000000	-27.449993	24.369566	19.301704	8.515585	-7.125019	0.000000	0.000000	-3.954674	50.969055	-0.582370	1.731660	0.000000	0.000000	79.779739	5.994688	38.677120	-20.419708	31.144686	-5.746849	0.000000	0.000000	-16.423695	-25.575718	15.243983	-7.172276	7.125019	0.000000	0.000000	1.367838	-13.172660	1.020435
	9.660050	17.802299	-1.072300	3.867340	-23.565702	-6.951730	0.000000	0.000000	0.000000	-21.501587	-1.086414	-5.814444	0.686485	5.297143	14.758033	-0.939751	17.247843	-10.388736	0.012561	-0.723710	-1.988880	0.000000	0.000000	0.000000	19.168839	-5.468277	3.950468	-0.893594	-6.025106	16.857285	-0.350818	-13.137641	-22.429253	-0.002398	-0.316114	0.868559	-0.094889	1.317700	5.773769	0.497409	1.738570	2.937330	0.461644	0.859238	-0.233418	1.108020	6.452500	-9.470761	-4.477360	8.675731	1.792750	-1.178810	4.181370	2.477730	1.108020	-0.000000	-0.000000	-91.344719	-1.829488	16.692730	22.298889	-33.313164	-6.749269	-0.000000	0.000002	-27.857094	24.314674	19.909264	8.746992	-7.125019	0.000000	0.000000	-4.166692	51.607464	-0.679015	1.108020	-0.000000	-0.000000	79.434822	6.426971	38.967213	-21.137474	31.988470	-6.122602	-0.000000	0.000002	-16.684690	-25.749289	15.161437	-7.189751	7.125019	0.000000	0.000000	1.244431	-13.239095	0.926592
